<svg width="1000" height="1000" viewBox="0 0 1000 1000" fill="none" xmlns="http://www.w3.org/2000/svg">
<rect width="1000" height="1000" fill="white"/>
<path d="M231.161 563H196.777C193.092 563 189.883 565.517 189.007 569.097L155.875 704.345C154.737 708.992 156.468 713.871 160.28 716.762L214 757.5L266.425 716.725C270.127 713.845 271.813 709.074 270.74 704.508L238.949 569.171C238.1 565.555 234.875 563 231.161 563Z" fill="black"/>
<path d="M250.788 497H177.416C168.496 497 162.694 506.388 166.683 514.367L184.736 550.472C186.43 553.86 189.893 556 193.68 556H233.912C237.652 556 241.078 553.914 242.796 550.592L261.448 514.511C265.577 506.523 259.779 497 250.788 497Z" fill="black"/>
<path d="M403.467 474H365.485C361.568 474 358.228 476.836 357.591 480.7L322.278 695.139C321.484 699.959 323.26 704.845 326.964 708.029L384.823 757.78L442.095 708.03C445.765 704.843 447.518 699.979 446.727 695.183L411.36 480.698C410.723 476.835 407.383 474 403.467 474Z" fill="black"/>
<path d="M424.4 405H345.236C336.298 405 330.497 414.42 334.52 422.401L354.228 461.501C355.928 464.873 359.382 467 363.158 467H406.224C409.981 467 413.421 464.894 415.13 461.547L435.088 422.457C439.164 414.472 433.365 405 424.4 405Z" fill="black"/>
<path d="M580.337 399H537.381C533.367 399 529.975 401.974 529.45 405.953L492.965 682.193C492.356 686.801 493.918 691.431 497.194 694.729L559.798 757.75L620.05 694.682C623.18 691.405 624.662 686.888 624.079 682.393L588.271 405.972C587.755 401.985 584.358 399 580.337 399Z" fill="black"/>
<path d="M600.302 326H516.802C507.786 326 501.99 335.571 506.168 343.561L528.694 386.634C530.419 389.933 533.833 392 537.555 392H579.881C583.625 392 587.055 389.909 588.77 386.58L610.97 343.496C615.085 335.51 609.287 326 600.302 326Z" fill="black"/>
<path d="M722.271 315.5H753.79C759.116 315.5 763.598 319.487 764.219 324.776L805.067 672.877C805.495 676.517 804.303 680.162 801.807 682.847L738.892 750.493L674.775 682.821C672.23 680.135 671.007 676.458 671.434 672.782L711.842 324.789C712.457 319.494 716.941 315.5 722.271 315.5Z" stroke="black" stroke-width="11"/>
<path d="M698.427 240.5H778.52C787.702 240.5 793.75 250.07 789.81 258.364L765.511 309.506C763.771 313.167 760.081 315.5 756.027 315.5H719.812C715.692 315.5 711.952 313.09 710.25 309.337L687.043 258.162C683.291 249.887 689.341 240.5 698.427 240.5Z" stroke="black" stroke-width="11"/>
</svg>
